<?xml version="1.0" standalone="no"?>
<!DOCTYPE svg PUBLIC "-//W3C//DTD SVG 20010904//EN"
 "http://www.w3.org/TR/2001/REC-SVG-20010904/DTD/svg10.dtd">
<svg version="1.0" xmlns="http://www.w3.org/2000/svg"
 width="270.000000pt" height="270.000000pt" viewBox="0 0 270.000000 270.000000"
 preserveAspectRatio="xMidYMid meet">
<metadata>
Created by potrace 1.11, written by Peter Selinger 2001-2013
</metadata>
<g transform="translate(0.000000,270.000000) scale(0.100000,-0.100000)"
fill="#000000" stroke="none">
<path d="M1160 2688 c-81 -12 -223 -49 -237 -60 -7 -6 -13 -8 -13 -4 0 4 -13
0 -30 -9 -16 -8 -32 -15 -35 -15 -11 2 -166 -80 -222 -116 -90 -59 -141 -102
-230 -193 -200 -203 -328 -462 -371 -751 -9 -60 -8 -332 2 -395 4 -27 14 -72
22 -100 8 -27 14 -51 14 -52 0 -2 0 -4 1 -5 0 -2 2 -11 5 -20 2 -10 6 -26 8
-35 3 -10 5 -19 6 -20 3 -3 5 -9 15 -42 29 -89 153 -302 224 -385 63 -73 185
-185 257 -238 78 -56 269 -158 296 -158 8 0 18 -4 23 -9 6 -6 21 -12 35 -15
14 -3 59 -15 100 -25 41 -11 102 -24 135 -29 77 -12 294 -13 365 -1 30 5 71
11 90 14 19 3 60 13 90 22 30 9 60 17 65 19 16 3 116 43 165 65 47 22 187 105
206 124 6 5 26 21 44 35 106 79 330 342 330 387 0 6 4 13 8 15 9 3 70 129 87
178 1 3 4 12 8 20 10 24 38 123 43 150 2 14 10 48 16 75 18 75 17 465 -1 465
-3 0 -7 16 -8 36 -1 20 -5 44 -9 53 -4 9 -8 29 -10 45 -2 16 -8 34 -13 40 -4
6 -11 24 -15 41 -7 27 -18 54 -64 155 -98 216 -341 469 -562 587 -79 42 -244
109 -290 118 -3 1 -18 4 -35 8 -112 27 -192 35 -330 35 -71 -1 -155 -5 -185
-10z m370 -273 c19 -3 60 -13 90 -21 30 -9 61 -16 68 -16 6 -1 12 -5 12 -10 0
-5 5 -6 10 -3 6 4 16 2 23 -3 7 -6 15 -10 20 -11 13 0 142 -68 203 -107 53
-33 208 -180 258 -244 34 -43 113 -186 140 -253 49 -123 68 -221 71 -374 4
-190 -23 -322 -102 -489 -33 -73 -110 -191 -147 -230 -12 -11 -37 -39 -57 -60
-50 -54 -85 -84 -158 -133 -55 -38 -202 -116 -209 -112 -1 1 -19 -6 -40 -15
-20 -8 -45 -18 -54 -20 -10 -2 -28 -6 -40 -9 -137 -33 -341 -40 -458 -15 -30
6 -65 13 -78 16 -92 18 -289 115 -377 186 -49 40 -103 88 -124 112 -14 16 -36
39 -48 52 -13 13 -23 27 -23 33 0 5 -4 11 -8 13 -23 9 -165 264 -160 286 1 4
-4 19 -10 34 -29 70 -46 196 -45 333 0 77 3 149 5 160 3 11 9 39 13 63 4 23
11 45 16 48 4 2 6 11 2 19 -3 9 0 21 6 29 6 7 8 16 4 19 -3 4 -1 7 6 7 7 0 10
4 7 8 -9 16 92 208 151 287 171 229 441 390 703 421 30 3 57 8 58 9 6 6 235
-3 272 -10z"/>
<path d="M1358 2154 c-2 -5 -4 -187 -3 -404 l2 -395 -281 -283 c-155 -155
-283 -287 -284 -293 -2 -5 7 -19 20 -31 38 -34 145 -108 155 -108 5 0 14 -5
21 -12 12 -12 78 -39 100 -40 6 -1 12 -4 12 -8 0 -4 6 -7 13 -7 6 -1 40 -8 75
-16 86 -21 274 -17 367 7 352 93 599 402 607 761 3 136 -19 245 -72 363 -16
34 -29 65 -29 69 1 3 -3 9 -8 12 -5 3 -24 28 -42 54 -32 47 -159 177 -173 177
-3 0 -13 6 -20 13 -21 20 -72 52 -80 49 -5 -1 -8 3 -8 10 0 6 -3 9 -6 5 -3 -3
-21 3 -40 14 -74 41 -313 87 -326 63z"/>
</g>
</svg>
